<svg width="175" height="29" viewBox="0 0 175 29" fill="none" xmlns="http://www.w3.org/2000/svg">
<g clip-path="url(#clip0_19_343)">
<path fill-rule="evenodd" clip-rule="evenodd" d="M25.7184 17.3293C25.1949 17.649 24.5783 17.6886 24.1097 17.4332C23.5144 17.1086 23.1871 16.3482 23.1871 15.2908V12.127C23.1871 10.5991 22.5618 9.512 21.5162 9.21846C19.7442 8.7198 18.4116 10.8142 17.9108 11.6007L14.7857 16.4953V10.5129C14.7505 9.13641 14.2878 8.3131 13.4091 8.06483C12.8277 7.90073 11.9578 7.96651 11.1129 9.21563L4.1114 20.0758C3.17407 18.3569 2.68544 16.4428 2.68797 14.5C2.68797 7.95802 8.11517 2.63617 14.7857 2.63617C21.4562 2.63617 26.8826 7.95802 26.8826 14.5C26.8826 14.5113 26.8856 14.5212 26.8863 14.5318C26.8863 14.5431 26.8841 14.553 26.8848 14.5644C26.9478 15.8312 26.5231 16.8391 25.7184 17.33V17.3293ZM29.5706 14.5007V14.5V14.4675L29.5699 14.4349C29.5325 6.46771 22.9155 0 14.7849 0C6.63316 0 0 6.50449 0 14.5C0 22.4948 6.63316 29 14.7857 29C18.5266 29 22.0969 27.6264 24.8376 25.1331C25.3823 24.638 25.4145 23.804 24.9093 23.2707C24.7904 23.1441 24.6465 23.0416 24.4861 22.9693C24.3256 22.897 24.1519 22.8564 23.975 22.8498C23.7981 22.8432 23.6217 22.8708 23.4559 22.9309C23.2902 22.9911 23.1386 23.0825 23.0099 23.2C20.7884 25.2321 17.8451 26.3644 14.7857 26.3638C11.2139 26.3638 8.00021 24.8367 5.78379 22.4149L12.0977 12.6214V17.1362C12.0977 19.3048 12.9683 20.0058 13.6983 20.2109C14.4291 20.416 15.5457 20.276 16.718 18.4369L20.1909 12.9984C20.3022 12.823 20.4047 12.6716 20.4984 12.5407V15.2908C20.4984 17.318 21.339 18.9391 22.8042 19.7377C24.1251 20.4577 25.7858 20.3927 27.1389 19.5679C28.7791 18.5671 29.6629 16.7231 29.5706 14.5007ZM50.1554 9.54666C50.5106 9.75532 50.8181 10.2193 50.8181 10.6373C50.8181 11.31 50.2265 11.8667 49.5638 11.8667C49.3983 11.8667 49.2328 11.8207 49.0908 11.774C48.3095 11.2173 47.3159 10.846 46.2747 10.846C43.8144 10.846 42.1106 12.7947 42.1106 15.2073C42.1106 17.6207 43.8144 19.546 46.2747 19.546C47.5048 19.546 48.5936 19.0587 49.4218 18.3167C49.6357 18.1681 49.892 18.0871 50.1554 18.0847C50.8181 18.0847 51.3387 18.5947 51.3387 19.2447C51.3387 19.662 51.078 20.0333 50.7471 20.242C49.5638 21.2167 47.9551 21.866 46.2989 21.866C42.5133 21.866 39.4365 18.85 39.4365 15.138C39.4365 11.426 42.5126 8.41 46.2989 8.41C47.7186 8.41 49.0666 8.82732 50.1554 9.54666ZM57.0778 12.354C59.6567 12.354 61.8336 14.4653 61.8336 17.0633C61.8336 19.662 59.6567 21.866 57.0778 21.866C54.3803 21.866 52.1324 19.662 52.1324 17.0633C52.1324 14.4653 54.3803 12.354 57.0778 12.354ZM57.0537 19.546C58.1901 19.546 59.1595 18.502 59.1595 17.0867C59.1595 15.672 58.1901 14.79 57.0537 14.79C55.8235 14.79 54.8058 15.6487 54.8058 17.0867C54.8058 18.502 55.8235 19.546 57.0537 19.546ZM63.4554 20.4273V13.7927C63.4554 13.0733 64.0471 12.47 64.7808 12.47C65.5144 12.47 66.1295 13.0733 66.1295 13.7927V20.4273C66.1295 21.1467 65.5144 21.75 64.7808 21.75C64.0471 21.75 63.4554 21.1467 63.4554 20.4273ZM63.2431 9.96468C63.2431 9.106 63.9285 8.41 64.7808 8.41C65.6558 8.41 66.366 9.106 66.366 9.96468C66.366 10.7993 65.6558 11.4727 64.7808 11.4727C63.9285 11.4727 63.2431 10.7993 63.2431 9.96468ZM71.2536 16.8313V20.4273C71.2536 21.1467 70.6385 21.75 69.9041 21.75C69.1711 21.75 68.5788 21.1467 68.5788 20.4273V13.4907C68.5788 12.934 69.0525 12.47 69.6207 12.47C70.1882 12.47 70.6385 12.934 70.6385 13.4907C71.7266 12.5167 72.6726 12.354 73.5718 12.354C76.2458 12.354 77.4291 14.3027 77.4291 16.5067V20.4273C77.4291 21.1467 76.814 21.75 76.0803 21.75C75.3467 21.75 74.755 21.1467 74.755 20.4273V16.8313C74.755 15.6947 74.613 14.7433 72.9333 14.7433C71.75 14.7433 71.2528 15.6947 71.2528 16.8313H71.2536ZM86.1256 18.2007C85.8181 18.2007 85.6058 18.0613 85.4395 17.8753L82.3159 14.6047V20.4273C82.3159 21.1467 81.7008 21.75 80.9672 21.75C80.2335 21.75 79.6418 21.1467 79.6418 20.4273V8.89805C79.6801 8.80092 79.7484 8.71755 79.8375 8.65932C79.9267 8.6011 80.0322 8.57084 80.1398 8.57268C80.3755 8.57268 80.5644 8.75871 80.7072 8.89805L85.6761 14.3034C85.8181 14.466 86.007 14.5587 86.1022 14.5587C86.1967 14.5587 86.3856 14.466 86.5276 14.3041L91.4972 8.89805C91.6392 8.75871 91.8281 8.57268 92.0647 8.57268C92.3012 8.57268 92.4908 8.71202 92.5618 8.89805V20.4273C92.5618 21.1467 91.9702 21.75 91.2365 21.75C90.5028 21.75 89.8878 21.1467 89.8878 20.4273V14.6047L86.7649 17.8753C86.5986 18.0613 86.3856 18.2007 86.1256 18.2007ZM98.987 19.546C100.194 19.546 101.211 18.502 101.211 17.0867C101.211 15.672 100.17 14.7433 98.987 14.7433C97.8038 14.7433 96.857 15.6947 96.857 17.0867C96.857 18.4553 97.8038 19.546 98.987 19.546ZM101.827 20.7293L101.778 20.4273C101.258 21.4246 99.6014 21.866 98.5367 21.866C96.0281 21.866 94.183 19.662 94.183 17.0633C94.183 14.4653 96.0757 12.354 98.6788 12.354C99.1283 12.354 100.619 12.47 101.778 13.7927L101.826 13.4907C101.826 12.934 102.275 12.47 102.844 12.47C103.411 12.47 103.884 12.934 103.884 13.4907V20.7293C103.884 21.286 103.411 21.75 102.843 21.75C102.275 21.75 101.825 21.286 101.825 20.7293H101.827ZM111.304 14.7433H111.02C109.34 14.8367 109.009 15.7647 109.009 16.8313V20.4273C109.009 21.1467 108.394 21.75 107.66 21.75C106.926 21.75 106.335 21.1467 106.335 20.4273V13.4907C106.335 12.934 106.808 12.47 107.376 12.47C107.944 12.47 108.394 12.934 108.394 13.4907C109.387 12.586 110.192 12.4007 111.02 12.354H111.28C111.919 12.354 112.51 12.8873 112.51 13.5607C112.51 14.1867 111.943 14.7433 111.304 14.7433ZM121.61 19.8247C121.728 20.01 121.799 20.2187 121.799 20.4507C121.799 21.1233 121.16 21.75 120.474 21.75C120.001 21.75 119.598 21.402 119.291 21.0307L116.215 17.574V20.4273C116.215 21.1467 115.6 21.75 114.866 21.75C114.132 21.75 113.541 21.1467 113.541 20.4273V9.89537C113.541 9.17532 114.132 8.57268 114.866 8.57268C115.6 8.57268 116.215 9.17532 116.215 9.89537V16.4607L119.291 13.166C119.598 12.818 119.977 12.47 120.451 12.47C121.113 12.47 121.728 13.0733 121.728 13.746C121.728 13.9547 121.681 14.1633 121.562 14.3493L119.125 16.924L121.61 19.824V19.8247ZM126.852 14.79C126.119 14.79 124.935 15.1613 124.935 16.2513H128.792C128.792 15.138 127.562 14.79 126.852 14.79H126.852ZM130.354 17.8987H124.935C124.935 19.4533 126.473 19.6853 127.159 19.6853C127.657 19.6853 128.367 19.5927 128.911 19.36C129.076 19.2447 129.36 19.1513 129.597 19.1513C130.188 19.1513 130.685 19.6394 130.685 20.2194C130.685 20.6133 130.425 20.9613 130.094 21.1467C129.266 21.7267 128.2 21.866 127.183 21.866C124.486 21.866 122.238 20.4514 122.238 17.1793C122.238 14.6047 123.61 12.354 126.805 12.354C129.384 12.354 131.347 13.978 131.395 16.878C131.395 17.4347 130.922 17.8987 130.354 17.8987ZM137.797 21.866H137.063C135.028 21.866 133.845 21.0073 133.845 17.922V14.7433H133.159C132.52 14.7433 131.952 14.1867 131.952 13.5607C131.952 12.8873 132.52 12.354 133.159 12.354H133.845V9.89466C133.845 9.17532 134.437 8.57198 135.17 8.57198C135.903 8.57198 136.519 9.17532 136.519 9.89466V12.354H137.631C138.27 12.354 138.838 12.8873 138.838 13.5607C138.838 14.1867 138.27 14.7433 137.631 14.7433H136.519V17.4113C136.519 19.1747 136.613 19.546 137.418 19.546H137.797C138.435 19.546 138.979 20.0567 138.979 20.706C138.979 21.3327 138.435 21.866 137.797 21.866ZM150.753 9.54666C151.107 9.75532 151.415 10.2193 151.415 10.6373C151.415 11.31 150.824 11.8667 150.161 11.8667C149.996 11.8667 149.829 11.8207 149.688 11.774C148.907 11.2173 147.913 10.846 146.872 10.846C144.412 10.846 142.707 12.7947 142.707 15.2073C142.707 17.6207 144.411 19.546 146.872 19.546C148.102 19.546 149.191 19.0587 150.019 18.3167C150.233 18.1681 150.489 18.0871 150.753 18.0847C151.415 18.0847 151.935 18.5947 151.935 19.2447C151.935 19.662 151.675 20.0333 151.344 20.242C150.161 21.2167 148.552 21.866 146.895 21.866C143.11 21.866 140.034 18.85 140.034 15.138C140.034 11.426 143.109 8.41 146.895 8.41C148.316 8.41 149.664 8.82732 150.753 9.54666ZM157.533 19.546C158.74 19.546 159.757 18.502 159.757 17.0867C159.757 15.672 158.715 14.7433 157.532 14.7433C156.35 14.7433 155.403 15.6947 155.403 17.0867C155.403 18.4553 156.35 19.546 157.532 19.546H157.533ZM160.372 20.7293L160.325 20.4273C159.804 21.4246 158.148 21.866 157.083 21.866C154.575 21.866 152.729 19.662 152.729 17.0633C152.729 14.4653 154.622 12.354 157.225 12.354C157.674 12.354 159.165 12.47 160.325 13.7927L160.372 13.4907C160.372 12.934 160.821 12.47 161.39 12.47C161.957 12.47 162.431 12.934 162.431 13.4907V20.7293C162.431 21.286 161.957 21.75 161.39 21.75C160.821 21.75 160.372 21.286 160.372 20.7293ZM169.779 19.546C170.962 19.546 171.908 18.4553 171.908 17.0867C171.908 15.6947 170.962 14.7433 169.779 14.7433C168.595 14.7433 167.554 15.6713 167.554 17.0867C167.554 18.502 168.572 19.546 169.779 19.546ZM167.554 21.1007V24.3947C167.554 25.114 166.939 25.7173 166.205 25.7173C165.472 25.7173 164.88 25.114 164.88 24.3947V13.4907C164.88 12.934 165.354 12.47 165.922 12.47C166.489 12.47 166.94 12.934 166.94 13.5833C167.933 12.586 169.163 12.354 170.086 12.354C172.689 12.354 174.582 14.4653 174.582 17.0633C174.582 19.662 172.737 21.866 170.228 21.866C169.448 21.866 168.288 21.634 167.554 21.1007Z" fill="#17181B"/>
</g>
<defs>
<clipPath id="clip0_19_343">
<rect width="175" height="29" fill="white"/>
</clipPath>
</defs>
</svg>
